<svg width="40" height="40" viewBox="0 0 40 40" fill="none" xmlns="http://www.w3.org/2000/svg">
<path d="M20 37.8569C29.8622 37.8569 37.8571 29.8619 37.8571 19.9997C37.8571 10.1375 29.8622 2.14258 20 2.14258C10.1377 2.14258 2.14282 10.1375 2.14282 19.9997C2.14282 29.8619 10.1377 37.8569 20 37.8569Z" fill="#DED7FF" stroke="#4147D5" stroke-width="3" stroke-linecap="round" stroke-linejoin="round"/>
<path d="M20.0002 20.1117C23.0241 20.1117 25.4754 17.6603 25.4754 14.6364C25.4754 11.6125 23.0241 9.16113 20.0002 9.16113C16.9763 9.16113 14.5249 11.6125 14.5249 14.6364C14.5249 17.6603 16.9763 20.1117 20.0002 20.1117Z" fill="white" stroke="#4147D5" stroke-width="3" stroke-linecap="round" stroke-linejoin="round"/>
<path d="M30.5836 34.3839C27.6218 36.5668 23.9615 37.8569 19.9999 37.8569C16.0383 37.8569 12.3781 36.5668 9.41626 34.3839C10.0061 32.1627 11.2819 30.1773 13.0699 28.716C15.0257 27.1174 17.474 26.2441 19.9999 26.2441C22.5259 26.2441 24.9742 27.1174 26.93 28.716C28.7179 30.1773 29.9937 32.1627 30.5836 34.3839Z" fill="white" stroke="#4147D5" stroke-width="3" stroke-linecap="round" stroke-linejoin="round"/>
</svg>
